<svg width="160" height="60" viewBox="0 0 160 60" fill="none" xmlns="http://www.w3.org/2000/svg">
<path d="M0 30L0.495104 56.7001L13.8629 51.9001L13.4916 25.3L0 30Z" fill="#BFD730"/>
<path d="M30.2012 7.8L30.5725 34.4L44.0641 29.6L43.6927 3L30.2012 7.8Z" fill="#BFD730"/>
<path d="M15.2249 24.7L15.5962 51.3L28.8402 35L28.4689 8.40002L15.2249 24.7Z" fill="#BFD730"/>
<path d="M67.4439 43V42.328L70.8039 40.648V17.632L67.4439 15.952V15.28H87.9819V22.504H87.3099L84.7059 17.59H74.5839V27.544H81.7239L83.8239 24.058H84.4959V33.256H83.8239L81.7239 29.854H74.5839V40.69H85.8819L88.4859 35.356H89.1579V43H67.4439ZM104.52 43.21L96.7923 17.464L93.6423 15.952V15.28H104.31V15.952L100.74 17.506L105.99 35.692H106.2L113.466 15.07H115.02L122.454 35.692H122.706L127.872 17.548L124.302 15.952V15.28H133.584V15.952L130.77 17.506L122.958 43.21H121.488L113.844 22.63H113.634L105.99 43.21H104.52ZM138.073 43V42.328L141.433 40.648V17.632L138.073 15.952V15.28H148.573V15.952L145.213 17.632V40.648L148.573 42.328V43H138.073Z" fill="white"/>
</svg>
